<svg xmlns:xlink="http://www.w3.org/1999/xlink" width="10.521ex" height="2.458ex" viewBox="0 -763.5 4529.9 1058.4" role="img" focusable="false" aria-hidden="true" xmlns="http://www.w3.org/2000/svg" style="vertical-align: -0.685ex;"><defs><path stroke-width="1" id="E134-STIXWEBMAIN-35" d="M438 681l-36 -85c-3 -7 -11 -13 -27 -13h-194l-40 -85c143 -27 193 -49 250 -128c26 -36 35 -74 35 -127c0 -96 -30 -158 -98 -208c-47 -34 -102 -49 -170 -49c-75 0 -127 24 -127 62c0 25 17 38 45 38c23 0 42 -5 74 -31c28 -23 51 -32 71 -32c70 0 135 83 135 169 c0 64 -22 114 -67 150c-47 38 -117 70 -213 70c-9 0 -12 2 -12 8c0 2 1 5 1 5l109 237h207c23 0 32 5 48 26Z"></path><path stroke-width="1" id="E134-STIXWEBMAIN-22C5" d="M203 253c0 -32 -27 -60 -59 -60c-33 0 -61 30 -61 60s28 60 61 60c32 0 59 -28 59 -60Z"></path><path stroke-width="1" id="E134-STIXWEBMAIN-28" d="M304 -161l-12 -16c-158 90 -244 259 -244 429c0 185 87 329 247 424l9 -16c-139 -119 -170 -212 -170 -405c0 -186 30 -299 170 -416Z"></path><path stroke-width="1" id="E134-STIXWEBMAIN-31" d="M394 0h-276v15c74 4 95 25 95 80v449c0 34 -9 49 -30 49c-10 0 -27 -5 -45 -12l-27 -10v14l179 91l9 -3v-597c0 -43 20 -61 95 -61v-15Z"></path><path stroke-width="1" id="E134-STIXWEBMAIN-36" d="M446 684l2 -16c-157 -26 -269 -134 -296 -285c49 38 83 45 127 45c117 0 189 -80 189 -209c0 -64 -18 -120 -51 -160c-37 -46 -93 -73 -159 -73c-79 0 -142 37 -177 101c-28 51 -47 122 -47 192c0 108 38 203 109 276c86 90 165 114 303 129zM378 188 c0 128 -42 194 -135 194c-57 0 -116 -24 -116 -116c0 -152 48 -252 142 -252c72 0 109 72 109 174Z"></path><path stroke-width="1" id="E134-STIXWEBMAIN-2212" d="M621 220h-557v66h557v-66Z"></path><path stroke-width="1" id="E134-STIXWEBMAINI-6E" d="M460 117l14 -13c-68 -93 -93 -113 -140 -113c-25 0 -47 16 -47 54c0 10 2 23 16 75l44 162c8 31 14 67 14 79c0 18 -9 29 -24 29c-40 0 -85 -49 -148 -142c-45 -67 -53 -90 -100 -248h-75l96 350c1 5 2 11 2 17c0 20 -14 26 -65 27v16c81 16 109 20 162 31l4 -2l-67 -218 c100 160 167 220 231 220c43 0 65 -25 65 -61c0 -18 -4 -39 -10 -60l-56 -203c-10 -36 -14 -53 -14 -61c0 -9 4 -18 16 -18c14 0 32 16 61 53c7 8 14 17 21 26Z"></path><path stroke-width="1" id="E134-STIXWEBMAIN-29" d="M29 660l12 16c153 -92 244 -259 244 -429c0 -185 -88 -327 -247 -424l-9 16c142 117 170 211 170 405c0 187 -25 302 -170 416Z"></path></defs><g stroke="currentColor" fill="currentColor" stroke-width="0" transform="matrix(1 0 0 -1 0 0)"><use xlink:href="#E134-STIXWEBMAIN-35" x="0" y="0" xmlns:xlink="http://www.w3.org/1999/xlink"></use><use xlink:href="#E134-STIXWEBMAIN-22C5" x="722" y="0" xmlns:xlink="http://www.w3.org/1999/xlink"></use><g transform="translate(1231,0)"><use xlink:href="#E134-STIXWEBMAIN-28" xmlns:xlink="http://www.w3.org/1999/xlink"></use><g transform="translate(333,0)"><use xlink:href="#E134-STIXWEBMAIN-31" xmlns:xlink="http://www.w3.org/1999/xlink"></use><use xlink:href="#E134-STIXWEBMAIN-36" x="500" y="0" xmlns:xlink="http://www.w3.org/1999/xlink"></use></g><use xlink:href="#E134-STIXWEBMAIN-2212" x="1556" y="0" xmlns:xlink="http://www.w3.org/1999/xlink"></use><use xlink:href="#E134-STIXWEBMAINI-6E" x="2464" y="0" xmlns:xlink="http://www.w3.org/1999/xlink"></use><use xlink:href="#E134-STIXWEBMAIN-29" x="2964" y="0" xmlns:xlink="http://www.w3.org/1999/xlink"></use></g></g></svg>